<svg width="100" height="100" viewBox="0 0 100 100" fill="none" xmlns="http://www.w3.org/2000/svg">
<path d="M75.7892 49.8655L75.7338 49.4964L71.9789 48.0004L66.4102 62.03L73.0644 31.4314L75.7338 49.4991L76.4206 49.7739L96.2863 46.8264L93.2513 26.2775L73.549 29.2L74.244 26H56.3887L54.3451 35.3974C54.3451 35.3586 54.3451 35.3197 54.3451 35.2809C54.3451 32.1225 53.974 29.0196 53.243 26H35.216L34.9058 26.1415C36.2267 29.0307 36.8969 32.1031 36.8969 35.2809C36.8969 41.0842 34.6068 46.5767 30.4448 50.7481C26.2856 54.9195 20.8027 57.2147 15.0125 57.2147C12.739 57.2147 10.4877 56.8622 8.32503 56.1656L3 72.8123C6.89062 74.064 10.9335 74.6968 15.018 74.6968C25.4687 74.6968 35.3295 70.5809 42.784 63.1096C46.1956 59.6903 48.9038 55.7659 50.8394 51.5113L45.7913 74.7246H63.6466L65.1862 67.6418L82.9418 74.7246H83.6701L91.2326 55.6771L76.4206 49.7683L75.7864 49.8627L75.7892 49.8655Z" fill="black"/>
</svg>
